<?xml version="1.0" standalone="no"?>
<!DOCTYPE svg PUBLIC "-//W3C//DTD SVG 20010904//EN"
 "http://www.w3.org/TR/2001/REC-SVG-20010904/DTD/svg10.dtd">
<svg version="1.0" xmlns="http://www.w3.org/2000/svg"
 width="512.000000pt" height="512.000000pt" viewBox="0 0 512.000000 512.000000"
 preserveAspectRatio="xMidYMid meet">

<g transform="translate(0.000000,512.000000) scale(0.100000,-0.100000)"
fill="#000000" stroke="none">
<path d="M2281 4039 c-141 -15 -199 -55 -241 -167 -15 -40 -61 -288 -84 -454
l-5 -38 284 0 284 0 6 58 c4 31 25 180 46 331 21 151 39 276 39 278 0 6 -246
0 -329 -8z"/>
<path d="M2995 3930 c-120 -17 -238 -72 -296 -137 -87 -99 -109 -246 -55 -358
49 -99 149 -156 347 -200 63 -14 130 -32 149 -41 33 -15 34 -17 15 -30 -49
-36 -263 -4 -373 56 -30 16 -57 28 -59 27 -4 -4 -111 -241 -124 -274 -8 -21
-3 -26 51 -53 171 -86 452 -112 630 -58 89 27 139 58 198 122 59 65 82 125 82
214 0 89 -16 136 -68 194 -66 73 -144 107 -332 148 -52 11 -107 25 -122 31
-96 39 77 67 205 34 32 -8 80 -26 108 -41 28 -14 53 -24 55 -22 6 7 124 291
122 293 -18 15 -104 50 -171 69 -96 28 -264 40 -362 26z"/>
<path d="M1925 3198 c-3 -18 -45 -324 -95 -680 -49 -356 -94 -656 -100 -668
-6 -11 -22 -25 -36 -30 -35 -14 -625 -13 -661 1 -15 5 -58 40 -95 77 -38 36
-68 64 -68 62 0 -3 -13 -97 -30 -210 -57 -390 -38 -455 145 -489 87 -16 950
-14 1036 3 144 27 193 87 234 279 20 96 235 1621 235 1670 0 16 -21 17 -280
17 l-279 0 -6 -32z"/>
<path d="M2688 2621 c-52 -11 -87 -37 -105 -79 -18 -41 -133 -813 -135 -907
-2 -78 6 -101 45 -123 29 -15 75 -17 512 -17 549 0 540 -1 575 77 16 38 23 69
46 206 l5 32 -416 0 c-359 0 -415 2 -415 15 0 56 64 452 75 464 11 11 59 13
237 13 281 -2 484 9 522 29 55 27 84 95 101 237 l7 62 -509 -1 c-279 -1 -524
-5 -545 -8z"/>
</g>
</svg>
